{
  "asset": {
    "version": "2.0",
    "generator": "THREE.GLTFExporter r171"
  },
  "scenes": [
    {
      "name": "Scene",
      "nodes": [
        2,
        3
      ]
    }
  ],
  "scene": 0,
  "nodes": [
    {
      "matrix": [
        4.5906626476157735,
        8.789704166554227e-16,
        0,
        0,
        -8.789704166554227e-16,
        4.5906626476157735,
        0,
        0,
        0,
        0,
        4.5906626476157735,
        0,
        0,
        0,
        0,
        1
      ],
      "name": "geometry_0",
      "extras": {
        "processed": true,
        "name": "geometry_0"
      },
      "mesh": 0
    },
    {
      "name": "world",
      "extras": {
        "name": "world"
      },
      "children": [
        0
      ]
    },
    {
      "matrix": [
        -0.8691347202377986,
        -6.189666040009009e-17,
        0.4945754119213395,
        0,
        -1.0643830531670512e-16,
        1,
        -6.18966604000901e-17,
        0,
        -0.4945754119213395,
        -1.0643830531670509e-16,
        -0.8691347202377986,
        0,
        -1.005990810846256,
        2.1900380427405985,
        -1.7962308171238215,
        1
      ],
      "name": "Buddhist-statue.glb",
      "children": [
        1
      ]
    },
    {
      "name": "AmbientLight"
    }
  ],
  "bufferViews": [
    {
      "buffer": 0,
      "byteOffset": 0,
      "byteLength": 149832,
      "target": 34962,
      "byteStride": 12
    },
    {
      "buffer": 0,
      "byteOffset": 149832,
      "byteLength": 99888,
      "target": 34962,
      "byteStride": 8
    },
    {
      "buffer": 0,
      "byteOffset": 249720,
      "byteLength": 192780,
      "target": 34963
    }
  ],
  "buffers": [
    {
      "byteLength": 442500,
      "uri": "data:application/octet-stream;base64,"
    }
  ],
  "accessors": [
    {
      "bufferView": 0,
      "componentType": 5126,
      "count": 12486,
      "max": [
        0.3727123737335205,
        0.5006330013275146,
        0.28516271710395813
      ],
      "min": [
        -0.3738025724887848,
        -0.5003278255462646,
        -0.28738513588905334
      ],
      "type": "VEC3"
    },
    {
      "bufferView": 1,
      "componentType": 5126,
      "count": 12486,
      "max": [
        0.9995777010917664,
        0.999578058719635
      ],
      "min": [
        0.00042229730752296746,
        0.00042194128036499023
      ],
      "type": "VEC2"
    },
    {
      "bufferView": 2,
      "componentType": 5125,
      "count": 48195,
      "max": [
        12485
      ],
      "min": [
        0
      ],
      "type": "SCALAR"
    }
  ],
  "materials": [
    {
      "pbrMetallicRoughness": {
        "baseColorFactor": [
          0.4019777798219466,
          0.4019777798219466,
          0.4019777798219466,
          1
        ],
        "metallicFactor": 1,
        "roughnessFactor": 0.9036020036098448,
        "baseColorTexture": {
          "index": 0,
          "texCoord": 0
        }
      }
    }
  ],
  "textures": [
    {
      "sampler": 0,
      "source": 0
    }
  ],
  "samplers": [
    {
      "magFilter": 9729,
      "minFilter": 9987,
      "wrapS": 10497,
      "wrapT": 10497
    }
  ],
  "images": [
    {
      "mimeType": "image/png",
      "uri": "data:image/png;base64,"
    }
  ],
  "meshes": [
    {
      "primitives": [
        {
          "mode": 4,
          "attributes": {
            "POSITION": 0,
            "TEXCOORD_0": 1
          },
          "indices": 2,
          "material": 0
        }
      ]
    }
  ]
}