{
	"asset":{
		"generator":"Khronos glTF Blender I/O v4.0.43",
		"version":"2.0"
	},
	"scene":0,
	"scenes":[
		{
			"name":"Scene",
			"nodes":[
				2
			]
		}
	],
	"nodes":[
		{
			"mesh":0,
			"name":"geometry_0"
		},
		{
			"children":[
				0
			],
			"name":"world"
		},
		{
			"children":[
				1
			],
			"name":"Buddhist-statue.glb",
			"rotation":[
				0,
				-0.9667302370071411,
				0,
				0.2557980418205261
			],
			"translation":[
				-1.0059908628463745,
				2.190037965774536,
				-1.7962307929992676
			]
		}
	],
	"materials":[
		{
			"name":"Material_0",
			"pbrMetallicRoughness":{
				"baseColorFactor":[
					0.4019777774810791,
					0.4019777774810791,
					0.4019777774810791,
					1
				],
				"baseColorTexture":{
					"index":0
				},
				"roughnessFactor":0.9036020040512085
			}
		}
	],
	"meshes":[
		{
			"name":"Mesh_0",
			"primitives":[
				{
					"attributes":{
						"POSITION":0,
						"NORMAL":1,
						"TEXCOORD_0":2
					},
					"indices":3,
					"material":0
				}
			]
		}
	],
	"textures":[
		{
			"sampler":0,
			"source":0
		}
	],
	"images":[
		{
			"mimeType":"image/png",
			"name":"Image_0",
			"uri":"Image_0.png"
		}
	],
	"accessors":[
		{
			"bufferView":0,
			"componentType":5126,
			"count":48189,
			"max":[
				0.24169151484966278,
				-1.8630377054214478,
				-1.8525575399398804
			],
			"min":[
				-0.21267586946487427,
				-2.516839027404785,
				-2.2657077312469482
			],
			"type":"VEC3"
		},
		{
			"bufferView":1,
			"componentType":5126,
			"count":48189,
			"type":"VEC3"
		},
		{
			"bufferView":2,
			"componentType":5126,
			"count":48189,
			"type":"VEC2"
		},
		{
			"bufferView":3,
			"componentType":5123,
			"count":48195,
			"type":"SCALAR"
		}
	],
	"bufferViews":[
		{
			"buffer":0,
			"byteLength":578268,
			"byteOffset":0,
			"target":34962
		},
		{
			"buffer":0,
			"byteLength":578268,
			"byteOffset":578268,
			"target":34962
		},
		{
			"buffer":0,
			"byteLength":385512,
			"byteOffset":1156536,
			"target":34962
		},
		{
			"buffer":0,
			"byteLength":96390,
			"byteOffset":1542048,
			"target":34963
		}
	],
	"samplers":[
		{
			"magFilter":9729,
			"minFilter":9987
		}
	],
	"buffers":[
		{
			"byteLength":1638440,
			"uri":"buddy1.bin"
		}
	]
}
