{
	"asset":{
		"generator":"Khronos glTF Blender I/O v4.0.43",
		"version":"2.0"
	},
	"scene":0,
	"scenes":[
		{
			"name":"Scene",
			"nodes":[
				2
			]
		}
	],
	"nodes":[
		{
			"mesh":0,
			"name":"geometry_0",
			"rotation":[
				0,
				-0.29429134726524353,
				0,
				0.9557157754898071
			],
			"scale":[
				4.590662956237793,
				4.590662479400635,
				4.590662956237793
			],
			"translation":[
				0.014029979705810547,
				-2.190037965774536,
				-2.0587048530578613
			]
		},
		{
			"children":[
				0
			],
			"name":"world"
		},
		{
			"children":[
				1
			],
			"name":"Buddhist-statue.glb",
			"rotation":[
				0,
				-0.9667302370071411,
				0,
				0.2557980418205261
			],
			"translation":[
				-1.0059908628463745,
				2.190037965774536,
				-1.7962307929992676
			]
		}
	],
	"materials":[
		{
			"name":"Material_0",
			"pbrMetallicRoughness":{
				"baseColorFactor":[
					0.4019777774810791,
					0.4019777774810791,
					0.4019777774810791,
					1
				],
				"baseColorTexture":{
					"index":0
				},
				"roughnessFactor":0.9036020040512085
			}
		}
	],
	"meshes":[
		{
			"name":"Mesh_0",
			"primitives":[
				{
					"attributes":{
						"POSITION":0,
						"NORMAL":1,
						"TEXCOORD_0":2
					},
					"indices":3,
					"material":0
				}
			]
		}
	],
	"textures":[
		{
			"sampler":0,
			"source":0
		}
	],
	"images":[
		{
			"mimeType":"image/png",
			"name":"Image_0",
			"uri":"Image_0.png"
		}
	],
	"accessors":[
		{
			"bufferView":0,
			"componentType":5126,
			"count":48187,
			"max":[
				0.3727123737335205,
				0.5006330013275146,
				0.28516271710395813
			],
			"min":[
				-0.3738025724887848,
				-0.5003278255462646,
				-0.28738513588905334
			],
			"type":"VEC3"
		},
		{
			"bufferView":1,
			"componentType":5126,
			"count":48187,
			"type":"VEC3"
		},
		{
			"bufferView":2,
			"componentType":5126,
			"count":48187,
			"type":"VEC2"
		},
		{
			"bufferView":3,
			"componentType":5123,
			"count":48195,
			"type":"SCALAR"
		}
	],
	"bufferViews":[
		{
			"buffer":0,
			"byteLength":578244,
			"byteOffset":0,
			"target":34962
		},
		{
			"buffer":0,
			"byteLength":578244,
			"byteOffset":578244,
			"target":34962
		},
		{
			"buffer":0,
			"byteLength":385496,
			"byteOffset":1156488,
			"target":34962
		},
		{
			"buffer":0,
			"byteLength":96390,
			"byteOffset":1541984,
			"target":34963
		}
	],
	"samplers":[
		{
			"magFilter":9729,
			"minFilter":9987
		}
	],
	"buffers":[
		{
			"byteLength":1638376,
			"uri":"buddy.bin"
		}
	]
}
