{
	"asset":{
		"generator":"Khronos glTF Blender I/O v4.0.43",
		"version":"2.0"
	},
	"scene":0,
	"scenes":[
		{
			"name":"Scene",
			"nodes":[
				12
			]
		}
	],
	"nodes":[
		{
			"mesh":0,
			"name":"wcusdaudw_LOD0_TIER2_000_MatID_1_0",
			"translation":[
				309.1156005859375,
				0,
				0
			]
		},
		{
			"children":[
				0
			],
			"name":"wcusdaudw_LOD0_TIER2_000"
		},
		{
			"mesh":1,
			"name":"wcusdaudw_LOD0_TIER2_001_MatID_1_0",
			"translation":[
				385.343994140625,
				0,
				0
			]
		},
		{
			"children":[
				2
			],
			"name":"wcusdaudw_LOD0_TIER2_001"
		},
		{
			"mesh":2,
			"name":"wcusdaudw_LOD0_TIER2_002_MatID_1_0",
			"translation":[
				643.0726318359375,
				0,
				0
			]
		},
		{
			"children":[
				4
			],
			"name":"wcusdaudw_LOD0_TIER2_002"
		},
		{
			"mesh":3,
			"name":"wcusdaudw_LOD0_TIER2_003_MatID_1_0",
			"translation":[
				143.24452209472656,
				0,
				0
			]
		},
		{
			"children":[
				6
			],
			"name":"wcusdaudw_LOD0_TIER2_003"
		},
		{
			"mesh":4,
			"name":"wcusdaudw_LOD0_TIER2_004_MatID_1_0",
			"translation":[
				251.44732666015625,
				0,
				0
			]
		},
		{
			"children":[
				8
			],
			"name":"wcusdaudw_LOD0_TIER2_004"
		},
		{
			"children":[
				1,
				3,
				5,
				7,
				9
			],
			"name":"RootNode"
		},
		{
			"children":[
				10
			],
			"name":"Modular_Wooden_Wall_Kit_wcusdaudw_Mid.fbx",
			"rotation":[
				0.70710688829422,
				0,
				0,
				0.7071066498756409
			],
			"scale":[
				0.009999999776482582,
				0.010000000707805157,
				0.010000000707805157
			]
		},
		{
			"children":[
				11
			],
			"name":"Sketchfab_model",
			"rotation":[
				-0.70710688829422,
				0,
				0,
				0.7071066498756409
			]
		}
	],
	"materials":[
		{
			"doubleSided":true,
			"name":"Modular_Wooden_Wall_Kit_wcusdaudw_Mid",
			"normalTexture":{
				"index":0
			},
			"occlusionTexture":{
				"index":1
			},
			"pbrMetallicRoughness":{
				"baseColorTexture":{
					"index":2
				},
				"metallicFactor":0,
				"metallicRoughnessTexture":{
					"index":1
				}
			}
		}
	],
	"meshes":[
		{
			"name":"wcusdaudw_LOD0_TIER2_000_MatID_1_0",
			"primitives":[
				{
					"attributes":{
						"POSITION":0,
						"NORMAL":1,
						"TEXCOORD_0":2
					},
					"indices":3,
					"material":0
				}
			]
		},
		{
			"name":"wcusdaudw_LOD0_TIER2_001_MatID_1_0",
			"primitives":[
				{
					"attributes":{
						"POSITION":4,
						"NORMAL":5,
						"TEXCOORD_0":6
					},
					"indices":7,
					"material":0
				}
			]
		},
		{
			"name":"wcusdaudw_LOD0_TIER2_002_MatID_1_0",
			"primitives":[
				{
					"attributes":{
						"POSITION":8,
						"NORMAL":9,
						"TEXCOORD_0":10
					},
					"indices":11,
					"material":0
				}
			]
		},
		{
			"name":"wcusdaudw_LOD0_TIER2_003_MatID_1_0",
			"primitives":[
				{
					"attributes":{
						"POSITION":12,
						"NORMAL":13,
						"TEXCOORD_0":14
					},
					"indices":15,
					"material":0
				}
			]
		},
		{
			"name":"wcusdaudw_LOD0_TIER2_004_MatID_1_0",
			"primitives":[
				{
					"attributes":{
						"POSITION":16,
						"NORMAL":17,
						"TEXCOORD_0":18
					},
					"indices":19,
					"material":0
				}
			]
		}
	],
	"textures":[
		{
			"sampler":0,
			"source":0
		},
		{
			"sampler":0,
			"source":1
		},
		{
			"sampler":0,
			"source":2
		}
	],
	"images":[
		{
			"mimeType":"image/jpeg",
			"name":"Image_2",
			"uri":"Image_2.jpg"
		},
		{
			"mimeType":"image/png",
			"name":"Image_1",
			"uri":"Image_1.png"
		},
		{
			"mimeType":"image/jpeg",
			"name":"Image_0",
			"uri":"Image_0.jpg"
		}
	],
	"accessors":[
		{
			"bufferView":0,
			"componentType":5126,
			"count":850,
			"max":[
				50.026084899902344,
				225.15345764160156,
				20.32538604736328
			],
			"min":[
				-0.03339358791708946,
				-1.0889953045989387e-05,
				-12.349921226501465
			],
			"type":"VEC3"
		},
		{
			"bufferView":1,
			"componentType":5126,
			"count":850,
			"type":"VEC3"
		},
		{
			"bufferView":2,
			"componentType":5126,
			"count":850,
			"type":"VEC2"
		},
		{
			"bufferView":3,
			"componentType":5123,
			"count":3210,
			"type":"SCALAR"
		},
		{
			"bufferView":4,
			"componentType":5126,
			"count":2846,
			"max":[
				225.0648651123047,
				225.1643829345703,
				20.347732543945312
			],
			"min":[
				-0.023847971111536026,
				-0.0037834763061255217,
				-12.349959373474121
			],
			"type":"VEC3"
		},
		{
			"bufferView":5,
			"componentType":5126,
			"count":2846,
			"type":"VEC3"
		},
		{
			"bufferView":6,
			"componentType":5126,
			"count":2846,
			"type":"VEC2"
		},
		{
			"bufferView":7,
			"componentType":5123,
			"count":12456,
			"type":"SCALAR"
		},
		{
			"bufferView":8,
			"componentType":5126,
			"count":1706,
			"max":[
				62.35065460205078,
				225.15988159179688,
				50.01631164550781
			],
			"min":[
				-0.017220765352249146,
				-0.0012106302892789245,
				-12.362290382385254
			],
			"type":"VEC3"
		},
		{
			"bufferView":9,
			"componentType":5126,
			"count":1706,
			"type":"VEC3"
		},
		{
			"bufferView":10,
			"componentType":5126,
			"count":1706,
			"type":"VEC2"
		},
		{
			"bufferView":11,
			"componentType":5123,
			"count":7350,
			"type":"SCALAR"
		},
		{
			"bufferView":12,
			"componentType":5126,
			"count":990,
			"max":[
				45.21472930908203,
				225.1516876220703,
				20.16942024230957
			],
			"min":[
				-0.015782326459884644,
				-0.0030040910933166742,
				-25.015087127685547
			],
			"type":"VEC3"
		},
		{
			"bufferView":13,
			"componentType":5126,
			"count":990,
			"type":"VEC3"
		},
		{
			"bufferView":14,
			"componentType":5126,
			"count":990,
			"type":"VEC2"
		},
		{
			"bufferView":15,
			"componentType":5123,
			"count":3633,
			"type":"SCALAR"
		},
		{
			"bufferView":16,
			"componentType":5126,
			"count":562,
			"max":[
				25.016996383666992,
				225.15933227539062,
				20.13434600830078
			],
			"min":[
				-0.03154999762773514,
				0.00038907278212718666,
				-12.352777481079102
			],
			"type":"VEC3"
		},
		{
			"bufferView":17,
			"componentType":5126,
			"count":562,
			"type":"VEC3"
		},
		{
			"bufferView":18,
			"componentType":5126,
			"count":562,
			"type":"VEC2"
		},
		{
			"bufferView":19,
			"componentType":5123,
			"count":1926,
			"type":"SCALAR"
		}
	],
	"bufferViews":[
		{
			"buffer":0,
			"byteLength":10200,
			"byteOffset":0,
			"target":34962
		},
		{
			"buffer":0,
			"byteLength":10200,
			"byteOffset":10200,
			"target":34962
		},
		{
			"buffer":0,
			"byteLength":6800,
			"byteOffset":20400,
			"target":34962
		},
		{
			"buffer":0,
			"byteLength":6420,
			"byteOffset":27200,
			"target":34963
		},
		{
			"buffer":0,
			"byteLength":34152,
			"byteOffset":33620,
			"target":34962
		},
		{
			"buffer":0,
			"byteLength":34152,
			"byteOffset":67772,
			"target":34962
		},
		{
			"buffer":0,
			"byteLength":22768,
			"byteOffset":101924,
			"target":34962
		},
		{
			"buffer":0,
			"byteLength":24912,
			"byteOffset":124692,
			"target":34963
		},
		{
			"buffer":0,
			"byteLength":20472,
			"byteOffset":149604,
			"target":34962
		},
		{
			"buffer":0,
			"byteLength":20472,
			"byteOffset":170076,
			"target":34962
		},
		{
			"buffer":0,
			"byteLength":13648,
			"byteOffset":190548,
			"target":34962
		},
		{
			"buffer":0,
			"byteLength":14700,
			"byteOffset":204196,
			"target":34963
		},
		{
			"buffer":0,
			"byteLength":11880,
			"byteOffset":218896,
			"target":34962
		},
		{
			"buffer":0,
			"byteLength":11880,
			"byteOffset":230776,
			"target":34962
		},
		{
			"buffer":0,
			"byteLength":7920,
			"byteOffset":242656,
			"target":34962
		},
		{
			"buffer":0,
			"byteLength":7266,
			"byteOffset":250576,
			"target":34963
		},
		{
			"buffer":0,
			"byteLength":6744,
			"byteOffset":257844,
			"target":34962
		},
		{
			"buffer":0,
			"byteLength":6744,
			"byteOffset":264588,
			"target":34962
		},
		{
			"buffer":0,
			"byteLength":4496,
			"byteOffset":271332,
			"target":34962
		},
		{
			"buffer":0,
			"byteLength":3852,
			"byteOffset":275828,
			"target":34963
		}
	],
	"samplers":[
		{
			"magFilter":9729,
			"minFilter":9987
		}
	],
	"buffers":[
		{
			"byteLength":279680,
			"uri":"walls.bin"
		}
	]
}
